<svg width="17860" height="894" xmlns="http://www.w3.org/2000/svg" xmlns:xlink="http://www.w3.org/1999/xlink" xml:space="preserve" overflow="hidden"><defs><clipPath id="clip0"><rect x="-15977" y="6714" width="17860" height="894"/></clipPath><clipPath id="clip1"><rect x="-15977" y="6714" width="17860" height="894"/></clipPath><clipPath id="clip2"><rect x="-7049" y="6717" width="8932" height="889"/></clipPath><clipPath id="clip3"><rect x="-7049" y="6717" width="8932" height="889"/></clipPath><clipPath id="clip4"><rect x="-15974" y="6717" width="8933" height="889"/></clipPath><clipPath id="clip5"><rect x="-15974" y="6717" width="8933" height="889"/></clipPath></defs><g clip-path="url(#clip0)" transform="translate(15977 -6714)"><g clip-path="url(#clip1)"><g clip-path="url(#clip2)"><g clip-path="url(#clip3)"><g><path d="M4500.06 449.825C4359.05 459.307 4264.54 542.229 4174.69 642.457 3886.35 963.912 3402.06 985.583 3079.85 696.936 3037.11 658.711 2999.49 615.97 2960.51 574.133 2810.77 413.406 2586.08 412.052 2439.2 575.337 2341.23 684.295 2236.18 782.115 2098.18 837.497 1804.72 955.033 1537.29 905.52 1294.09 708.674 1245.03 668.944 1203.95 620.937 1161.51 574.434 1014.63 413.556 785.577 412.503 640.35 575.337 536.811 691.518 422.737 791.747 275.102 848.032 196.695 877.98 115.88 895.437 31.7542 899.049 6.32073 900.102-0.150494 893.029 0 868.047 1.20395 736.215 0.752468 604.382 0.300987 472.55 0.300987 452.685 2.2574 441.548 27.3898 439.592 125.211 431.616 206.026 387.822 270.588 314.532 346.436 228.299 430.111 152.3 531.544 95.8644 807.85-57.7896 1165.27-21.2196 1404.71 186.311 1451.36 226.794 1492.75 272.092 1534.43 317.241 1690.95 487.148 1914.58 488.051 2068.08 315.886 2166.81 205.123 2275.46 108.506 2416.02 56.1341 2703.77-51.1678 2967.13-3.46135 3205.51 188.117 3255.93 228.6 3297.16 278.413 3341.56 325.217 3492.96 484.891 3716.44 483.988 3863.32 320.551 3961.14 211.594 4067.39 115.73 4205.54 59.8965 4300.21 21.5206 4397.73 0 4500.06 1.65543L4500.06 449.825Z" fill="#F25F90" fill-rule="nonzero" fill-opacity="1" transform="matrix(-1 1.22465e-16 -1.22625e-16 -1.00131 1916.56 7603.69)"/><path d="M4500.06 449.825C4641.07 459.307 4735.58 542.229 4825.43 642.457 5113.77 963.912 5598.06 985.583 5920.27 696.936 5963.01 658.711 6000.63 615.97 6039.61 574.133 6189.35 413.406 6414.04 412.052 6560.92 575.337 6658.89 684.295 6763.94 782.115 6901.94 837.497 7195.4 955.033 7462.83 905.52 7706.03 708.674 7755.09 668.944 7796.17 620.937 7838.61 574.434 7985.49 413.556 8214.54 412.503 8359.77 575.337 8463.31 691.518 8577.38 791.747 8725.02 848.032 8803.43 877.98 8884.24 895.437 8968.37 899.049 8993.65 900.102 9000.27 893.18 8999.97 868.198 8998.77 736.365 8999.22 604.533 8999.67 472.701 8999.67 452.835 8997.71 441.699 8972.58 439.742 8874.76 431.766 8793.95 387.973 8729.38 314.682 8653.53 228.449 8569.86 152.45 8468.43 96.0149 8192.12-57.7896 7834.55-21.2196 7595.11 186.462 7548.46 226.944 7507.07 272.243 7465.39 317.391 7308.87 487.298 7085.24 488.201 6931.74 316.037 6833.01 205.273 6724.36 108.656 6583.8 56.2846 6296.05-51.0173 6032.69-3.31086 5794.31 188.268 5743.89 228.75 5702.66 278.564 5658.26 325.367 5506.86 485.041 5283.38 484.138 5136.5 320.702 5038.68 211.745 4932.43 115.88 4794.28 60.047 4699.92 21.5206 4602.4 0 4500.06 1.65543L4500.06 449.825Z" fill="#F25F90" fill-rule="nonzero" fill-opacity="1" transform="matrix(-1 1.22465e-16 -1.22625e-16 -1.00131 1916.56 7603.69)"/><path d="M34.3125 449.825 9000.27 449.825 9000.27 900.253 34.3124 900.253Z" fill="#F25F90" fill-rule="nonzero" fill-opacity="1" transform="matrix(-1 1.22465e-16 -1.22625e-16 -1.00131 1916.56 7603.69)"/></g></g></g><g clip-path="url(#clip4)"><g clip-path="url(#clip5)"><g><path d="M4500.56 449.876C4359.54 459.358 4265.02 542.289 4175.16 642.529 3886.78 964.02 3402.44 985.693 3080.2 697.014 3037.45 658.784 2999.82 616.039 2960.84 574.198 2811.08 413.452 2586.37 412.098 2439.47 575.402 2341.49 684.371 2236.44 782.203 2098.42 837.591 1804.92 955.14 1537.46 905.622 1294.24 708.754 1245.17 669.019 1204.08 621.006 1161.64 574.498 1014.74 413.603 785.665 412.549 640.422 575.402 536.871 691.596 422.784 791.836 275.133 848.127 196.717 878.078 115.893 895.537 31.7577 899.15 6.32144 900.203-0.15051 893.129 0 868.144 1.20408 736.297 0.752552 604.45 0.301021 472.603 0.301021 452.736 2.25766 441.598 27.3929 439.641 125.225 431.664 206.049 387.866 270.618 314.567 346.475 228.324 430.159 152.317 531.603 95.8752 807.94-57.796 1165.4-21.222 1404.86 186.332 1451.52 226.819 1492.91 272.123 1534.6 317.276 1691.14 487.202 1914.79 488.105 2068.31 315.922 2167.05 205.146 2275.72 108.518 2416.3 56.1404 2704.07-51.1736 2967.46-3.46174 3205.87 188.138 3256.29 228.625 3297.53 278.444 3341.93 325.253 3493.35 484.945 3716.86 484.042 3863.75 320.587 3961.59 211.618 4067.85 115.743 4206.02 59.9032 4300.69 21.523 4398.22 0 4500.56 1.65562L4500.56 449.876Z" fill="#F25F90" fill-rule="nonzero" fill-opacity="1" transform="matrix(-1 1.22465e-16 -1.22612e-16 -1.0012 -7006.44 7603.69)"/><path d="M4500.56 449.876C4641.59 459.358 4736.11 542.289 4825.97 642.529 5114.35 964.02 5598.69 985.693 5920.93 697.014 5963.68 658.784 6001.3 616.039 6040.29 574.198 6190.04 413.452 6414.76 412.098 6561.65 575.402 6659.64 684.371 6764.69 782.203 6902.71 837.591 7196.21 955.14 7463.66 905.622 7706.89 708.754 7755.96 669.019 7797.04 621.006 7839.49 574.498 7986.39 413.603 8215.46 412.549 8360.71 575.402 8464.26 691.596 8578.34 791.836 8726 848.127 8804.41 878.078 8885.24 895.537 8969.37 899.15 8994.66 900.203 9001.28 893.28 9000.98 868.295 8999.77 736.448 9000.23 604.601 9000.68 472.753 9000.68 452.886 8998.72 441.748 8973.59 439.792 8875.75 431.815 8794.93 388.016 8730.36 314.717 8654.5 228.475 8570.82 152.467 8469.38 96.0257 8193.04-57.796 7835.43-21.222 7595.96 186.482 7549.3 226.97 7507.91 272.273 7466.22 317.427 7309.69 487.353 7086.03 488.256 6932.51 316.072 6833.78 205.296 6725.11 108.669 6584.53 56.2909 6296.76-51.0231 6033.36-3.31123 5794.95 188.289 5744.53 228.776 5703.29 278.595 5658.89 325.404 5507.48 485.095 5283.97 484.192 5137.07 320.738 5039.24 211.768 4932.98 115.893 4794.81 60.0537 4700.44 21.523 4602.91 0 4500.56 1.65562L4500.56 449.876Z" fill="#F25F90" fill-rule="nonzero" fill-opacity="1" transform="matrix(-1 1.22465e-16 -1.22612e-16 -1.0012 -7006.44 7603.69)"/><path d="M34.3164 449.876 9001.28 449.876 9001.28 900.354 34.3162 900.354Z" fill="#F25F90" fill-rule="nonzero" fill-opacity="1" transform="matrix(-1 1.22465e-16 -1.22612e-16 -1.0012 -7006.44 7603.69)"/></g></g></g></g></g></svg>