<svg width="17856" height="889" xmlns="http://www.w3.org/2000/svg" xmlns:xlink="http://www.w3.org/1999/xlink" xml:space="preserve" overflow="hidden"><defs><clipPath id="clip0"><rect x="-15904" y="5037" width="17856" height="889"/></clipPath><clipPath id="clip1"><rect x="-15904" y="5037" width="17856" height="889"/></clipPath><clipPath id="clip2"><rect x="-6980" y="5037" width="8933" height="888"/></clipPath><clipPath id="clip3"><rect x="-6980" y="5037" width="8933" height="888"/></clipPath><clipPath id="clip4"><rect x="-15903" y="5037" width="8932" height="888"/></clipPath><clipPath id="clip5"><rect x="-15903" y="5037" width="8932" height="888"/></clipPath></defs><g clip-path="url(#clip0)" transform="translate(15904 -5037)"><g clip-path="url(#clip1)"><g clip-path="url(#clip2)"><g clip-path="url(#clip3)"><g><path d="M4500.06 449.825C4359.05 459.307 4264.54 542.229 4174.69 642.457 3886.35 963.912 3402.06 985.583 3079.85 696.936 3037.11 658.711 2999.49 615.97 2960.51 574.133 2810.77 413.406 2586.08 412.052 2439.2 575.337 2341.23 684.295 2236.18 782.115 2098.18 837.497 1804.72 955.033 1537.29 905.52 1294.09 708.674 1245.03 668.944 1203.95 620.937 1161.51 574.434 1014.63 413.556 785.577 412.503 640.35 575.337 536.811 691.518 422.737 791.747 275.102 848.032 196.695 877.98 115.88 895.437 31.7542 899.049 6.32073 900.102-0.150494 893.029 0 868.047 1.20395 736.215 0.752468 604.382 0.300987 472.55 0.300987 452.685 2.2574 441.548 27.3898 439.592 125.211 431.616 206.026 387.822 270.588 314.532 346.436 228.299 430.111 152.3 531.544 95.8644 807.85-57.7896 1165.27-21.2196 1404.71 186.311 1451.36 226.794 1492.75 272.092 1534.43 317.241 1690.95 487.148 1914.58 488.051 2068.08 315.886 2166.81 205.123 2275.46 108.506 2416.02 56.1341 2703.77-51.1678 2967.13-3.46135 3205.51 188.117 3255.93 228.6 3297.16 278.413 3341.56 325.217 3492.96 484.891 3716.44 483.988 3863.32 320.551 3961.14 211.594 4067.39 115.73 4205.54 59.8965 4300.21 21.5206 4397.73 0 4500.06 1.65543L4500.06 449.825Z" fill="#F25F90" fill-rule="nonzero" fill-opacity="1" transform="matrix(-1 1.22465e-16 1.22625e-16 1.00131 1986.56 5039.31)"/><path d="M4500.06 449.825C4641.07 459.307 4735.58 542.229 4825.43 642.457 5113.77 963.912 5598.06 985.583 5920.27 696.936 5963.01 658.711 6000.63 615.97 6039.61 574.133 6189.35 413.406 6414.04 412.052 6560.92 575.337 6658.89 684.295 6763.94 782.115 6901.94 837.497 7195.4 955.033 7462.83 905.52 7706.03 708.674 7755.09 668.944 7796.17 620.937 7838.61 574.434 7985.49 413.556 8214.54 412.503 8359.77 575.337 8463.31 691.518 8577.38 791.747 8725.02 848.032 8803.43 877.98 8884.24 895.437 8968.37 899.049 8993.65 900.102 9000.27 893.18 8999.97 868.198 8998.77 736.365 8999.22 604.533 8999.67 472.701 8999.67 452.835 8997.71 441.699 8972.58 439.742 8874.76 431.766 8793.95 387.973 8729.38 314.682 8653.53 228.449 8569.86 152.45 8468.43 96.0149 8192.12-57.7896 7834.55-21.2196 7595.11 186.462 7548.46 226.944 7507.07 272.243 7465.39 317.391 7308.87 487.298 7085.24 488.201 6931.74 316.037 6833.01 205.273 6724.36 108.656 6583.8 56.2846 6296.05-51.0173 6032.69-3.31086 5794.31 188.268 5743.89 228.75 5702.66 278.564 5658.26 325.367 5506.86 485.041 5283.38 484.138 5136.5 320.702 5038.68 211.745 4932.43 115.88 4794.28 60.047 4699.92 21.5206 4602.4 0 4500.06 1.65543L4500.06 449.825Z" fill="#F25F90" fill-rule="nonzero" fill-opacity="1" transform="matrix(-1 1.22465e-16 1.22625e-16 1.00131 1986.56 5039.31)"/><path d="M34.3125 449.825 9000.27 449.825 9000.27 900.253 34.3124 900.253Z" fill="#F25F90" fill-rule="nonzero" fill-opacity="1" transform="matrix(-1 1.22465e-16 1.22625e-16 1.00131 1986.56 5039.31)"/></g></g></g><g clip-path="url(#clip4)"><g clip-path="url(#clip5)"><g><path d="M4500.06 449.825C4359.05 459.307 4264.54 542.229 4174.69 642.457 3886.35 963.912 3402.06 985.583 3079.85 696.936 3037.11 658.711 2999.49 615.97 2960.51 574.133 2810.77 413.406 2586.08 412.052 2439.2 575.337 2341.23 684.295 2236.18 782.115 2098.18 837.497 1804.72 955.033 1537.29 905.52 1294.09 708.674 1245.03 668.944 1203.95 620.937 1161.51 574.434 1014.63 413.556 785.577 412.503 640.35 575.337 536.811 691.518 422.737 791.747 275.102 848.032 196.695 877.98 115.88 895.437 31.7542 899.049 6.32073 900.102-0.150494 893.029 0 868.047 1.20395 736.215 0.752468 604.382 0.300987 472.55 0.300987 452.685 2.2574 441.548 27.3898 439.592 125.211 431.616 206.026 387.822 270.588 314.532 346.436 228.299 430.111 152.3 531.544 95.8644 807.85-57.7896 1165.27-21.2196 1404.71 186.311 1451.36 226.794 1492.75 272.092 1534.43 317.241 1690.95 487.148 1914.58 488.051 2068.08 315.886 2166.81 205.123 2275.46 108.506 2416.02 56.1341 2703.77-51.1678 2967.13-3.46135 3205.51 188.117 3255.93 228.6 3297.16 278.413 3341.56 325.217 3492.96 484.891 3716.44 483.988 3863.32 320.551 3961.14 211.594 4067.39 115.73 4205.54 59.8965 4300.21 21.5206 4397.73 0 4500.06 1.65543L4500.06 449.825Z" fill="#F25F90" fill-rule="nonzero" fill-opacity="1" transform="matrix(-1 1.22465e-16 1.22625e-16 1.00131 -6937.44 5039.31)"/><path d="M4500.06 449.825C4641.07 459.307 4735.58 542.229 4825.43 642.457 5113.77 963.912 5598.06 985.583 5920.27 696.936 5963.01 658.711 6000.63 615.97 6039.61 574.133 6189.35 413.406 6414.04 412.052 6560.92 575.337 6658.89 684.295 6763.94 782.115 6901.94 837.497 7195.4 955.033 7462.83 905.52 7706.03 708.674 7755.09 668.944 7796.17 620.937 7838.61 574.434 7985.49 413.556 8214.54 412.503 8359.77 575.337 8463.31 691.518 8577.38 791.747 8725.02 848.032 8803.43 877.98 8884.24 895.437 8968.37 899.049 8993.65 900.102 9000.27 893.18 8999.97 868.198 8998.77 736.365 8999.22 604.533 8999.67 472.701 8999.67 452.835 8997.71 441.699 8972.58 439.742 8874.76 431.766 8793.95 387.973 8729.38 314.682 8653.53 228.449 8569.86 152.45 8468.43 96.0149 8192.12-57.7896 7834.55-21.2196 7595.11 186.462 7548.46 226.944 7507.07 272.243 7465.39 317.391 7308.87 487.298 7085.24 488.201 6931.74 316.037 6833.01 205.273 6724.36 108.656 6583.8 56.2846 6296.05-51.0173 6032.69-3.31086 5794.31 188.268 5743.89 228.75 5702.66 278.564 5658.26 325.367 5506.86 485.041 5283.38 484.138 5136.5 320.702 5038.68 211.745 4932.43 115.88 4794.28 60.047 4699.92 21.5206 4602.4 0 4500.06 1.65543L4500.06 449.825Z" fill="#F25F90" fill-rule="nonzero" fill-opacity="1" transform="matrix(-1 1.22465e-16 1.22625e-16 1.00131 -6937.44 5039.31)"/><path d="M34.3125 449.825 9000.27 449.825 9000.27 900.253 34.3124 900.253Z" fill="#F25F90" fill-rule="nonzero" fill-opacity="1" transform="matrix(-1 1.22465e-16 1.22625e-16 1.00131 -6937.44 5039.31)"/></g></g></g></g></g></svg>